<svg width="26" height="24" viewBox="0 0 26 24" fill="none" xmlns="http://www.w3.org/2000/svg">
<path d="M23 3.5H19.535L17.8312 0.945C17.74 0.80819 17.6164 0.696004 17.4714 0.618382C17.3264 0.54076 17.1645 0.500099 17 0.5H9C8.83553 0.500099 8.67363 0.54076 8.52864 0.618382C8.38364 0.696004 8.26003 0.80819 8.16875 0.945L6.46375 3.5H3C2.20435 3.5 1.44129 3.81607 0.87868 4.37868C0.316071 4.94129 0 5.70435 0 6.5V20.5C0 21.2956 0.316071 22.0587 0.87868 22.6213C1.44129 23.1839 2.20435 23.5 3 23.5H23C23.7956 23.5 24.5587 23.1839 25.1213 22.6213C25.6839 22.0587 26 21.2956 26 20.5V6.5C26 5.70435 25.6839 4.94129 25.1213 4.37868C24.5587 3.81607 23.7956 3.5 23 3.5ZM17.5 13C17.5 13.89 17.2361 14.76 16.7416 15.5001C16.2471 16.2401 15.5443 16.8169 14.7221 17.1575C13.8998 17.4981 12.995 17.5872 12.1221 17.4135C11.2492 17.2399 10.4474 16.8113 9.81802 16.182C9.18868 15.5526 8.7601 14.7508 8.58647 13.8779C8.41283 13.005 8.50195 12.1002 8.84254 11.2779C9.18314 10.4557 9.75991 9.75285 10.4999 9.25839C11.24 8.76392 12.11 8.5 13 8.5C14.1935 8.5 15.3381 8.97411 16.182 9.81802C17.0259 10.6619 17.5 11.8065 17.5 13Z" fill="white"/>
</svg>
