<svg width="18" height="28" viewBox="0 0 18 28" fill="none" xmlns="http://www.w3.org/2000/svg">
<path d="M15 0H3C2.20435 0 1.44129 0.316071 0.87868 0.87868C0.316071 1.44129 0 2.20435 0 3V25C0 25.7956 0.316071 26.5587 0.87868 27.1213C1.44129 27.6839 2.20435 28 3 28H15C15.7956 28 16.5587 27.6839 17.1213 27.1213C17.6839 26.5587 18 25.7956 18 25V3C18 2.20435 17.6839 1.44129 17.1213 0.87868C16.5587 0.316071 15.7956 0 15 0ZM3 2H15C15.2652 2 15.5196 2.10536 15.7071 2.29289C15.8946 2.48043 16 2.73478 16 3V4H2V3C2 2.73478 2.10536 2.48043 2.29289 2.29289C2.48043 2.10536 2.73478 2 3 2ZM15 26H3C2.73478 26 2.48043 25.8946 2.29289 25.7071C2.10536 25.5196 2 25.2652 2 25V24H16V25C16 25.2652 15.8946 25.5196 15.7071 25.7071C15.5196 25.8946 15.2652 26 15 26Z" fill="#FA7F1F"/>
</svg>
