<svg width="28" height="26" viewBox="0 0 28 26" fill="none" xmlns="http://www.w3.org/2000/svg">
<path d="M21.5 16V10C21.5 9.73478 21.6054 9.48043 21.7929 9.29289C21.9804 9.10536 22.2348 9 22.5 9C22.7652 9 23.0196 9.10536 23.2071 9.29289C23.3946 9.48043 23.5 9.73478 23.5 10V16C23.5 16.2652 23.3946 16.5196 23.2071 16.7071C23.0196 16.8946 22.7652 17 22.5 17C22.2348 17 21.9804 16.8946 21.7929 16.7071C21.6054 16.5196 21.5 16.2652 21.5 16ZM26.5 7C26.2348 7 25.9804 7.10536 25.7929 7.29289C25.6054 7.48043 25.5 7.73478 25.5 8V18C25.5 18.2652 25.6054 18.5196 25.7929 18.7071C25.9804 18.8946 26.2348 19 26.5 19C26.7652 19 27.0196 18.8946 27.2071 18.7071C27.3946 18.5196 27.5 18.2652 27.5 18V8C27.5 7.73478 27.3946 7.48043 27.2071 7.29289C27.0196 7.10536 26.7652 7 26.5 7ZM5.24 1.3275C5.15218 1.22851 5.04559 1.14793 4.9264 1.09044C4.80721 1.03294 4.6778 0.999678 4.54566 0.992569C4.41352 0.98546 4.28128 1.00465 4.15661 1.04902C4.03194 1.0934 3.91732 1.16207 3.81939 1.25107C3.72146 1.34007 3.64216 1.44762 3.5861 1.56749C3.53004 1.68736 3.49833 1.81717 3.49281 1.94938C3.48728 2.0816 3.50806 2.21359 3.55392 2.33772C3.59979 2.46185 3.66983 2.57564 3.76 2.6725L7.69375 7H2.5C1.96957 7 1.46086 7.21071 1.08579 7.58578C0.710714 7.96086 0.5 8.46957 0.5 9V17C0.5 17.5304 0.710714 18.0391 1.08579 18.4142C1.46086 18.7893 1.96957 19 2.5 19H8.15625L16.8862 25.7887C17.034 25.9036 17.211 25.9747 17.3971 25.9939C17.5832 26.0132 17.771 25.9798 17.9391 25.8977C18.1072 25.8155 18.2489 25.6878 18.3481 25.5291C18.4472 25.3704 18.4999 25.1871 18.5 25V18.8862L23.76 24.6725C23.8478 24.7715 23.9544 24.8521 24.0736 24.9096C24.1928 24.9671 24.3222 25.0003 24.4543 25.0074C24.5865 25.0145 24.7187 24.9953 24.8434 24.951C24.9681 24.9066 25.0827 24.8379 25.1806 24.7489C25.2785 24.6599 25.3578 24.5524 25.4139 24.4325C25.47 24.3126 25.5017 24.1828 25.5072 24.0506C25.5127 23.9184 25.4919 23.7864 25.4461 23.6623C25.4002 23.5381 25.3302 23.4244 25.24 23.3275L5.24 1.3275ZM16.76 11.0262C16.8958 11.1756 17.0735 11.2804 17.2699 11.3268C17.4664 11.3733 17.6722 11.3592 17.8605 11.2864C18.0488 11.2136 18.2106 11.0856 18.3247 10.9191C18.4389 10.7527 18.5 10.5556 18.5 10.3537V0.999998C18.4999 0.81288 18.4472 0.629555 18.3481 0.470866C18.2489 0.312176 18.1072 0.184489 17.9391 0.102321C17.771 0.0201533 17.5832 -0.0131986 17.3971 0.00605728C17.211 0.0253131 17.034 0.0964044 16.8862 0.211248L11.905 4.08625C11.7962 4.17091 11.7062 4.27715 11.6404 4.39829C11.5746 4.51943 11.5346 4.65285 11.5229 4.79018C11.5112 4.92751 11.5279 5.06579 11.5722 5.19633C11.6164 5.32687 11.6872 5.44685 11.78 5.54875L16.76 11.0262Z" fill="white"/>
</svg>
