<svg width="26" height="26" viewBox="0 0 26 26" fill="none" xmlns="http://www.w3.org/2000/svg">
<path d="M26.0001 13.0001C26.0002 10.4289 25.2377 7.91546 23.8093 5.77758C22.3808 3.6397 20.3505 1.97343 17.975 0.98947C15.5996 0.0055123 12.9857 -0.251931 10.4639 0.249695C7.94209 0.751321 5.62569 1.98949 3.80761 3.80762C1.98948 5.6257 0.751314 7.9421 0.249687 10.4639C-0.251939 12.9857 0.00550467 15.5996 0.989462 17.975C1.97342 20.3505 3.6397 22.3808 5.77758 23.8093C7.91546 25.2377 10.4289 26.0002 13.0001 26.0001H13.0114C16.4572 25.9971 19.7609 24.6262 22.1965 22.1885C24.632 19.7509 26.0001 16.446 26.0001 13.0001ZM3.14761 8.11512L9.54886 9.28386L2.83136 17.1914C2.23797 15.7425 1.9593 14.184 2.01383 12.6192C2.06835 11.0545 2.45481 9.5192 3.14761 8.11512ZM23.1689 8.80762C23.7623 10.2567 24.0409 11.8154 23.9864 13.3804C23.9319 14.9453 23.5454 16.4808 22.8526 17.8851L16.4514 16.7164L23.1689 8.80762ZM22.1589 6.90762L17.9439 11.8751L14.4539 2.09762C16.8498 2.41097 19.0742 3.50999 20.7789 5.22261C21.293 5.73765 21.7552 6.30204 22.1589 6.90762ZM12.3039 2.02386L14.4926 8.14887L4.28761 6.29011C4.57587 5.91442 4.88775 5.55744 5.22136 5.22136C7.11034 3.32327 9.63085 2.18534 12.3039 2.02386ZM3.84136 19.0926L8.05636 14.1251L11.5464 23.8976C9.99363 23.6907 8.50299 23.1546 7.1742 22.325C5.84541 21.4955 4.70912 20.3918 3.84136 19.0876V19.0926ZM13.6964 23.9751L11.5076 17.8501L14.3926 18.3751L21.7076 19.7114C20.7548 20.9549 19.546 21.9792 18.163 22.715C16.78 23.4509 15.255 23.881 13.6914 23.9764L13.6964 23.9751Z" fill="#FA7F1F"/>
</svg>
