<svg width="30" height="26" viewBox="0 0 30 26" fill="none" xmlns="http://www.w3.org/2000/svg">
<path d="M17.9387 0.101525C17.7706 0.0195812 17.5828 -0.0135504 17.3968 0.00589453C17.2107 0.0253395 17.0338 0.0965813 16.8862 0.211525L8.15625 7.00027H2.5C1.96957 7.00027 1.46086 7.21099 1.08579 7.58606C0.710714 7.96113 0.5 8.46984 0.5 9.00027V17.0003C0.5 17.5307 0.710714 18.0394 1.08579 18.4145C1.46086 18.7896 1.96957 19.0003 2.5 19.0003H8.15625L16.8862 25.789C17.034 25.9039 17.211 25.975 17.3971 25.9942C17.5832 26.0135 17.771 25.9801 17.9391 25.898C18.1072 25.8158 18.2489 25.6881 18.3481 25.5294C18.4472 25.3707 18.4999 25.1874 18.5 25.0003V1.00027C18.5 0.812935 18.4474 0.629354 18.3482 0.470453C18.249 0.311552 18.1071 0.18372 17.9387 0.101525ZM7.5 17.0003H2.5V9.00027H7.5V17.0003ZM23.25 9.69527C24.0543 10.6084 24.4981 11.7834 24.4981 13.0003C24.4981 14.2171 24.0543 15.3922 23.25 16.3053C23.0733 16.4994 22.8274 16.6163 22.5653 16.6307C22.3032 16.6451 22.046 16.5559 21.8491 16.3823C21.6522 16.2087 21.5315 15.9647 21.5129 15.7028C21.4944 15.441 21.5795 15.1824 21.75 14.9828C22.2323 14.435 22.4984 13.7301 22.4984 13.0003C22.4984 12.2704 22.2323 11.5656 21.75 11.0178C21.5795 10.8182 21.4944 10.5596 21.5129 10.2977C21.5315 10.0359 21.6522 9.79185 21.8491 9.61825C22.046 9.44466 22.3032 9.35545 22.5653 9.36986C22.8274 9.38426 23.0733 9.50115 23.25 9.69527ZM29.5 13.0003C29.5014 15.4605 28.5947 17.8347 26.9538 19.6678C26.7756 19.8605 26.5288 19.9755 26.2667 19.9879C26.0045 20.0004 25.748 19.9092 25.5524 19.7341C25.3568 19.5591 25.2379 19.3142 25.2214 19.0522C25.2048 18.7903 25.2918 18.5323 25.4638 18.334C26.7755 16.8673 27.5007 14.9686 27.5007 13.0009C27.5007 11.0332 26.7755 9.13447 25.4638 7.66777C25.3737 7.57035 25.304 7.45598 25.2586 7.33134C25.2131 7.20669 25.193 7.07425 25.1993 6.94174C25.2055 6.80923 25.2381 6.67929 25.2951 6.5595C25.3521 6.4397 25.4323 6.33244 25.5312 6.24396C25.63 6.15548 25.7455 6.08755 25.8708 6.04413C25.9962 6.00071 26.1289 5.98267 26.2613 5.99105C26.3937 5.99943 26.5231 6.03408 26.642 6.09296C26.7609 6.15184 26.8669 6.23379 26.9538 6.33402C28.5952 8.16629 29.502 10.5403 29.5 13.0003Z" fill="#FA7F1F"/>
</svg>
