<svg width="32" height="26" viewBox="0 0 32 26" fill="none" xmlns="http://www.w3.org/2000/svg">
<path d="M29.8298 6.82742C29.4587 7.19977 29.0176 7.49505 28.5319 7.69627C28.0462 7.89749 27.5255 8.00069 26.9998 7.99992C26.678 7.99975 26.3574 7.96114 26.0448 7.88492L22.716 14.0674C22.7535 14.1024 22.791 14.1374 22.8273 14.1737C23.3562 14.7027 23.7261 15.3694 23.8951 16.0982C24.0641 16.8269 24.0254 17.5884 23.7833 18.2962C23.5412 19.0041 23.1055 19.6298 22.5256 20.1024C21.9457 20.575 21.2449 20.8755 20.5028 20.9699C19.7607 21.0642 19.0071 20.9485 18.3274 20.636C17.6478 20.3234 17.0694 19.8266 16.6579 19.2018C16.2465 18.5771 16.0185 17.8494 15.9998 17.1016C15.9811 16.3538 16.1725 15.6157 16.5523 14.9712L14.0298 12.4487C13.4144 12.8102 12.7135 13.0006 11.9998 12.9999C11.6776 13.0002 11.3566 12.962 11.0435 12.8862L7.71479 19.0662C7.75229 19.1012 7.79104 19.1362 7.82729 19.1724C8.38661 19.7319 8.76748 20.4446 8.92174 21.2205C9.07601 21.9964 8.99674 22.8006 8.69397 23.5315C8.39119 24.2623 7.8785 24.887 7.22072 25.3265C6.56295 25.766 5.78962 26.0005 4.99854 26.0005C4.20745 26.0005 3.43413 25.766 2.77635 25.3265C2.11857 24.887 1.60588 24.2623 1.30311 23.5315C1.00033 22.8006 0.921062 21.9964 1.07533 21.2205C1.2296 20.4446 1.61047 19.7319 2.16979 19.1724C2.65647 18.686 3.26041 18.3333 3.92324 18.1485C4.58607 17.9637 5.28537 17.953 5.95354 18.1174L9.28229 11.9349C9.24479 11.8999 9.20729 11.8649 9.17104 11.8287C8.79951 11.4572 8.50479 11.0162 8.30371 10.5309C8.10263 10.0455 7.99914 9.52529 7.99914 8.99992C7.99914 8.47456 8.10263 7.95434 8.30371 7.46898C8.50479 6.98362 8.79951 6.54262 9.17104 6.17117C9.8592 5.48106 10.7757 5.06593 11.7483 5.00375C12.7209 4.94157 13.6827 5.23662 14.4532 5.83348C15.2236 6.43035 15.7496 7.28796 15.9324 8.24525C16.1153 9.20254 15.9423 10.1936 15.446 11.0324L17.9685 13.5549C18.8698 13.0268 19.9412 12.8699 20.956 13.1174L24.2848 6.93492C24.2473 6.89992 24.2085 6.86492 24.1723 6.82867C23.8008 6.45723 23.506 6.01623 23.305 5.53087C23.1039 5.04551 23.0004 4.52529 23.0004 3.99992C23.0004 3.47456 23.1039 2.95434 23.305 2.46898C23.506 1.98362 23.8008 1.54262 24.1723 1.17117C24.9225 0.420941 25.94 -0.000534058 27.001 -0.000534058C28.062 -0.000534058 29.0796 0.420941 29.8298 1.17117C30.58 1.9214 31.0015 2.93894 31.0015 3.99992C31.0015 5.06091 30.58 6.07844 29.8298 6.82867V6.82742Z" fill="#FA7F1F"/>
</svg>
