<svg width="22" height="28" viewBox="0 0 22 28" fill="none" xmlns="http://www.w3.org/2000/svg">
<path d="M16.75 4.96861C15.206 3.1854 13.4682 1.57967 11.5688 0.181107C11.4006 0.0633206 11.2003 0.000137329 10.995 0.000137329C10.7897 0.000137329 10.5894 0.0633206 10.4213 0.181107C8.52531 1.58026 6.7909 3.18596 5.25 4.96861C1.81375 8.91486 0 13.0749 0 16.9999C0 19.9172 1.15893 22.7151 3.22183 24.778C5.28473 26.8409 8.08262 27.9999 11 27.9999C13.9174 27.9999 16.7153 26.8409 18.7782 24.778C20.8411 22.7151 22 19.9172 22 16.9999C22 13.0749 20.1862 8.91486 16.75 4.96861ZM17.9813 18.1674C17.7219 19.6157 17.0251 20.9499 15.9846 21.9902C14.944 23.0306 13.6097 23.7271 12.1612 23.9861C12.1079 23.9947 12.054 23.9993 12 23.9999C11.7492 23.9998 11.5075 23.9055 11.323 23.7356C11.1384 23.5657 11.0245 23.3326 11.0037 23.0826C10.9829 22.8327 11.0569 22.584 11.2108 22.386C11.3648 22.188 11.5876 22.0551 11.835 22.0136C13.9062 21.6649 15.6637 19.9074 16.015 17.8324C16.0594 17.5708 16.2059 17.3376 16.4223 17.184C16.6387 17.0305 16.9072 16.9692 17.1688 17.0136C17.4303 17.058 17.6635 17.2045 17.8171 17.4209C17.9706 17.6373 18.0319 17.9058 17.9875 18.1674H17.9813Z" fill="white"/>
</svg>
